<mxfile host="app.diagrams.net" modified="2024-03-16T15:18:06.532Z" agent="Mozilla/5.0 (Windows NT 10.0; Win64; x64) AppleWebKit/537.36 (KHTML, like Gecko) Chrome/122.0.0.0 Safari/537.36" etag="Xo0iwPUANSWa1_-YgD6A" version="24.0.7" type="device">
  <diagram id="C5RBs43oDa-KdzZeNtuy" name="Page-1">
    <mxGraphModel dx="1434" dy="784" grid="1" gridSize="10" guides="1" tooltips="1" connect="1" arrows="1" fold="1" page="1" pageScale="1" pageWidth="827" pageHeight="1169" math="0" shadow="0">
      <root>
        <mxCell id="WIyWlLk6GJQsqaUBKTNV-0" />
        <mxCell id="WIyWlLk6GJQsqaUBKTNV-1" parent="WIyWlLk6GJQsqaUBKTNV-0" />
        <mxCell id="6ButkEsAmWv3XfVS1BKQ-1" value="Field" style="swimlane;fontStyle=1;align=center;verticalAlign=top;childLayout=stackLayout;horizontal=1;startSize=26;horizontalStack=0;resizeParent=1;resizeLast=0;collapsible=1;marginBottom=0;rounded=0;shadow=1;strokeWidth=2;fontSize=13;" parent="WIyWlLk6GJQsqaUBKTNV-1" vertex="1">
          <mxGeometry x="970" y="516" width="160" height="138" as="geometry">
            <mxRectangle x="230" y="140" width="160" height="26" as="alternateBounds" />
          </mxGeometry>
        </mxCell>
        <mxCell id="6ButkEsAmWv3XfVS1BKQ-2" value=" - value: str    " style="text;align=left;verticalAlign=top;spacingLeft=4;spacingRight=4;overflow=hidden;rotatable=0;points=[[0,0.5],[1,0.5]];portConstraint=eastwest;fontSize=13;fontColor=#FF3333;" parent="6ButkEsAmWv3XfVS1BKQ-1" vertex="1">
          <mxGeometry y="26" width="160" height="26" as="geometry" />
        </mxCell>
        <mxCell id="6ButkEsAmWv3XfVS1BKQ-5" value="" style="line;html=1;strokeWidth=1;align=left;verticalAlign=middle;spacingTop=-1;spacingLeft=3;spacingRight=3;rotatable=0;labelPosition=right;points=[];portConstraint=eastwest;" parent="6ButkEsAmWv3XfVS1BKQ-1" vertex="1">
          <mxGeometry y="52" width="160" height="8" as="geometry" />
        </mxCell>
        <mxCell id="6ButkEsAmWv3XfVS1BKQ-6" value="+ __init__(value)               &#xa;" style="text;align=left;verticalAlign=top;spacingLeft=4;spacingRight=4;overflow=hidden;rotatable=0;points=[[0,0.5],[1,0.5]];portConstraint=eastwest;" parent="6ButkEsAmWv3XfVS1BKQ-1" vertex="1">
          <mxGeometry y="60" width="160" height="30" as="geometry" />
        </mxCell>
        <mxCell id="6ButkEsAmWv3XfVS1BKQ-36" value="+ __str__()" style="text;align=left;verticalAlign=top;spacingLeft=4;spacingRight=4;overflow=hidden;rotatable=0;points=[[0,0.5],[1,0.5]];portConstraint=eastwest;" parent="6ButkEsAmWv3XfVS1BKQ-1" vertex="1">
          <mxGeometry y="90" width="160" height="30" as="geometry" />
        </mxCell>
        <mxCell id="6ButkEsAmWv3XfVS1BKQ-7" value="Name" style="swimlane;fontStyle=1;align=center;verticalAlign=top;childLayout=stackLayout;horizontal=1;startSize=26;horizontalStack=0;resizeParent=1;resizeLast=0;collapsible=1;marginBottom=0;rounded=0;shadow=0;strokeWidth=2;" parent="WIyWlLk6GJQsqaUBKTNV-1" vertex="1">
          <mxGeometry x="730" y="760" width="163" height="70" as="geometry">
            <mxRectangle x="130" y="380" width="160" height="26" as="alternateBounds" />
          </mxGeometry>
        </mxCell>
        <mxCell id="6ButkEsAmWv3XfVS1BKQ-40" value="&lt;font style=&quot;font-size: 16px;&quot;&gt;+__init__(value)&lt;/font&gt;" style="text;html=1;align=center;verticalAlign=middle;resizable=0;points=[];autosize=1;strokeColor=none;fillColor=none;" parent="6ButkEsAmWv3XfVS1BKQ-7" vertex="1">
          <mxGeometry y="26" width="163" height="30" as="geometry" />
        </mxCell>
        <mxCell id="6ButkEsAmWv3XfVS1BKQ-71" value="" style="endArrow=classic;html=1;rounded=0;entryX=0.5;entryY=0;entryDx=0;entryDy=0;strokeWidth=2;" parent="6ButkEsAmWv3XfVS1BKQ-7" target="6ButkEsAmWv3XfVS1BKQ-55" edge="1">
          <mxGeometry width="50" height="50" relative="1" as="geometry">
            <mxPoint x="83" y="70" as="sourcePoint" />
            <mxPoint x="133" y="20" as="targetPoint" />
          </mxGeometry>
        </mxCell>
        <mxCell id="6ButkEsAmWv3XfVS1BKQ-13" value="" style="endArrow=block;endSize=10;endFill=0;shadow=0;strokeWidth=2;rounded=0;curved=0;edgeStyle=elbowEdgeStyle;elbow=vertical;" parent="WIyWlLk6GJQsqaUBKTNV-1" source="6ButkEsAmWv3XfVS1BKQ-7" target="6ButkEsAmWv3XfVS1BKQ-1" edge="1">
          <mxGeometry width="160" relative="1" as="geometry">
            <mxPoint x="900" y="603" as="sourcePoint" />
            <mxPoint x="900" y="603" as="targetPoint" />
          </mxGeometry>
        </mxCell>
        <mxCell id="6ButkEsAmWv3XfVS1BKQ-14" value="Phone" style="swimlane;fontStyle=1;align=center;verticalAlign=top;childLayout=stackLayout;horizontal=1;startSize=26;horizontalStack=0;resizeParent=1;resizeLast=0;collapsible=1;marginBottom=0;rounded=0;shadow=0;strokeWidth=2;" parent="WIyWlLk6GJQsqaUBKTNV-1" vertex="1">
          <mxGeometry x="1000" y="760" width="160" height="70" as="geometry">
            <mxRectangle x="1030" y="760" width="170" height="26" as="alternateBounds" />
          </mxGeometry>
        </mxCell>
        <mxCell id="6ButkEsAmWv3XfVS1BKQ-41" value="&lt;font style=&quot;font-size: 16px;&quot;&gt;+__init__(value)&lt;/font&gt;" style="text;html=1;align=center;verticalAlign=middle;resizable=0;points=[];autosize=1;strokeColor=none;fillColor=none;" parent="6ButkEsAmWv3XfVS1BKQ-14" vertex="1">
          <mxGeometry y="26" width="160" height="30" as="geometry" />
        </mxCell>
        <mxCell id="6ButkEsAmWv3XfVS1BKQ-17" value="" style="endArrow=block;endSize=10;endFill=0;shadow=0;strokeWidth=2;rounded=0;curved=0;edgeStyle=elbowEdgeStyle;elbow=vertical;" parent="WIyWlLk6GJQsqaUBKTNV-1" source="6ButkEsAmWv3XfVS1BKQ-14" target="6ButkEsAmWv3XfVS1BKQ-1" edge="1">
          <mxGeometry width="160" relative="1" as="geometry">
            <mxPoint x="910" y="773" as="sourcePoint" />
            <mxPoint x="1010" y="671" as="targetPoint" />
          </mxGeometry>
        </mxCell>
        <mxCell id="6ButkEsAmWv3XfVS1BKQ-18" value="AddressBook" style="swimlane;fontStyle=1;align=center;verticalAlign=top;childLayout=stackLayout;horizontal=1;startSize=26;horizontalStack=0;resizeParent=1;resizeLast=0;collapsible=1;marginBottom=0;rounded=0;shadow=0;strokeWidth=2;fontSize=13;" parent="WIyWlLk6GJQsqaUBKTNV-1" vertex="1">
          <mxGeometry x="1410" y="540" width="190" height="300" as="geometry">
            <mxRectangle x="550" y="140" width="160" height="26" as="alternateBounds" />
          </mxGeometry>
        </mxCell>
        <mxCell id="6ButkEsAmWv3XfVS1BKQ-19" value="- data: dict" style="text;align=left;verticalAlign=top;spacingLeft=4;spacingRight=4;overflow=hidden;rotatable=0;points=[[0,0.5],[1,0.5]];portConstraint=eastwest;fontColor=#FF3333;" parent="6ButkEsAmWv3XfVS1BKQ-18" vertex="1">
          <mxGeometry y="26" width="190" height="34" as="geometry" />
        </mxCell>
        <mxCell id="6ButkEsAmWv3XfVS1BKQ-24" value="" style="line;html=1;strokeWidth=1;align=left;verticalAlign=middle;spacingTop=-1;spacingLeft=3;spacingRight=3;rotatable=0;labelPosition=right;points=[];portConstraint=eastwest;" parent="6ButkEsAmWv3XfVS1BKQ-18" vertex="1">
          <mxGeometry y="60" width="190" height="8" as="geometry" />
        </mxCell>
        <mxCell id="6ButkEsAmWv3XfVS1BKQ-25" value="+ add_contact(args)" style="text;align=left;verticalAlign=top;spacingLeft=4;spacingRight=4;overflow=hidden;rotatable=0;points=[[0,0.5],[1,0.5]];portConstraint=eastwest;" parent="6ButkEsAmWv3XfVS1BKQ-18" vertex="1">
          <mxGeometry y="68" width="190" height="26" as="geometry" />
        </mxCell>
        <mxCell id="6ButkEsAmWv3XfVS1BKQ-26" value="+ change_contact(args)" style="text;align=left;verticalAlign=top;spacingLeft=4;spacingRight=4;overflow=hidden;rotatable=0;points=[[0,0.5],[1,0.5]];portConstraint=eastwest;" parent="6ButkEsAmWv3XfVS1BKQ-18" vertex="1">
          <mxGeometry y="94" width="190" height="26" as="geometry" />
        </mxCell>
        <mxCell id="6ButkEsAmWv3XfVS1BKQ-42" value="+ show_phone(args)" style="text;align=left;verticalAlign=top;spacingLeft=4;spacingRight=4;overflow=hidden;rotatable=0;points=[[0,0.5],[1,0.5]];portConstraint=eastwest;" parent="6ButkEsAmWv3XfVS1BKQ-18" vertex="1">
          <mxGeometry y="120" width="190" height="26" as="geometry" />
        </mxCell>
        <mxCell id="6ButkEsAmWv3XfVS1BKQ-43" value="+ add_birthday(name, birthday)" style="text;align=left;verticalAlign=top;spacingLeft=4;spacingRight=4;overflow=hidden;rotatable=0;points=[[0,0.5],[1,0.5]];portConstraint=eastwest;" parent="6ButkEsAmWv3XfVS1BKQ-18" vertex="1">
          <mxGeometry y="146" width="190" height="26" as="geometry" />
        </mxCell>
        <mxCell id="6ButkEsAmWv3XfVS1BKQ-44" value="+ show_birthday(name)" style="text;align=left;verticalAlign=top;spacingLeft=4;spacingRight=4;overflow=hidden;rotatable=0;points=[[0,0.5],[1,0.5]];portConstraint=eastwest;" parent="6ButkEsAmWv3XfVS1BKQ-18" vertex="1">
          <mxGeometry y="172" width="190" height="26" as="geometry" />
        </mxCell>
        <mxCell id="6ButkEsAmWv3XfVS1BKQ-45" value="+ birthdays()" style="text;align=left;verticalAlign=top;spacingLeft=4;spacingRight=4;overflow=hidden;rotatable=0;points=[[0,0.5],[1,0.5]];portConstraint=eastwest;" parent="6ButkEsAmWv3XfVS1BKQ-18" vertex="1">
          <mxGeometry y="198" width="190" height="26" as="geometry" />
        </mxCell>
        <mxCell id="6ButkEsAmWv3XfVS1BKQ-46" value="+ delete (name)" style="text;align=left;verticalAlign=top;spacingLeft=4;spacingRight=4;overflow=hidden;rotatable=0;points=[[0,0.5],[1,0.5]];portConstraint=eastwest;" parent="6ButkEsAmWv3XfVS1BKQ-18" vertex="1">
          <mxGeometry y="224" width="190" height="26" as="geometry" />
        </mxCell>
        <mxCell id="6ButkEsAmWv3XfVS1BKQ-47" value="+ show_all ()" style="text;align=left;verticalAlign=top;spacingLeft=4;spacingRight=4;overflow=hidden;rotatable=0;points=[[0,0.5],[1,0.5]];portConstraint=eastwest;" parent="6ButkEsAmWv3XfVS1BKQ-18" vertex="1">
          <mxGeometry y="250" width="190" height="38" as="geometry" />
        </mxCell>
        <mxCell id="6ButkEsAmWv3XfVS1BKQ-55" value="Record" style="swimlane;fontStyle=1;align=center;verticalAlign=top;childLayout=stackLayout;horizontal=1;startSize=26;horizontalStack=0;resizeParent=1;resizeLast=0;collapsible=1;marginBottom=0;rounded=0;shadow=0;strokeWidth=2;" parent="WIyWlLk6GJQsqaUBKTNV-1" vertex="1">
          <mxGeometry x="720.5" y="900" width="182" height="280" as="geometry">
            <mxRectangle x="550" y="140" width="160" height="26" as="alternateBounds" />
          </mxGeometry>
        </mxCell>
        <mxCell id="6ButkEsAmWv3XfVS1BKQ-56" value="- name: Name" style="text;align=left;verticalAlign=top;spacingLeft=4;spacingRight=4;overflow=hidden;rotatable=0;points=[[0,0.5],[1,0.5]];portConstraint=eastwest;fontColor=#FF3333;" parent="6ButkEsAmWv3XfVS1BKQ-55" vertex="1">
          <mxGeometry y="26" width="182" height="26" as="geometry" />
        </mxCell>
        <mxCell id="6ButkEsAmWv3XfVS1BKQ-69" value="- phones: list" style="text;align=left;verticalAlign=top;spacingLeft=4;spacingRight=4;overflow=hidden;rotatable=0;points=[[0,0.5],[1,0.5]];portConstraint=eastwest;fontColor=#FF3333;" parent="6ButkEsAmWv3XfVS1BKQ-55" vertex="1">
          <mxGeometry y="52" width="182" height="26" as="geometry" />
        </mxCell>
        <mxCell id="6ButkEsAmWv3XfVS1BKQ-70" value="- birthday: Birthday" style="text;align=left;verticalAlign=top;spacingLeft=4;spacingRight=4;overflow=hidden;rotatable=0;points=[[0,0.5],[1,0.5]];portConstraint=eastwest;fontColor=#FF3333;" parent="6ButkEsAmWv3XfVS1BKQ-55" vertex="1">
          <mxGeometry y="78" width="182" height="24" as="geometry" />
        </mxCell>
        <mxCell id="6ButkEsAmWv3XfVS1BKQ-57" value="" style="line;html=1;strokeWidth=1;align=left;verticalAlign=middle;spacingTop=-1;spacingLeft=3;spacingRight=3;rotatable=0;labelPosition=right;points=[];portConstraint=eastwest;" parent="6ButkEsAmWv3XfVS1BKQ-55" vertex="1">
          <mxGeometry y="102" width="182" height="8" as="geometry" />
        </mxCell>
        <mxCell id="6ButkEsAmWv3XfVS1BKQ-58" value="+ add_phone(phone)" style="text;align=left;verticalAlign=top;spacingLeft=4;spacingRight=4;overflow=hidden;rotatable=0;points=[[0,0.5],[1,0.5]];portConstraint=eastwest;" parent="6ButkEsAmWv3XfVS1BKQ-55" vertex="1">
          <mxGeometry y="110" width="182" height="26" as="geometry" />
        </mxCell>
        <mxCell id="6ButkEsAmWv3XfVS1BKQ-59" value="+ remove_phone(phone)" style="text;align=left;verticalAlign=top;spacingLeft=4;spacingRight=4;overflow=hidden;rotatable=0;points=[[0,0.5],[1,0.5]];portConstraint=eastwest;" parent="6ButkEsAmWv3XfVS1BKQ-55" vertex="1">
          <mxGeometry y="136" width="182" height="26" as="geometry" />
        </mxCell>
        <mxCell id="6ButkEsAmWv3XfVS1BKQ-60" value="+ edit_phone(phone)" style="text;align=left;verticalAlign=top;spacingLeft=4;spacingRight=4;overflow=hidden;rotatable=0;points=[[0,0.5],[1,0.5]];portConstraint=eastwest;" parent="6ButkEsAmWv3XfVS1BKQ-55" vertex="1">
          <mxGeometry y="162" width="182" height="26" as="geometry" />
        </mxCell>
        <mxCell id="6ButkEsAmWv3XfVS1BKQ-61" value="+ find_phone(phone)" style="text;align=left;verticalAlign=top;spacingLeft=4;spacingRight=4;overflow=hidden;rotatable=0;points=[[0,0.5],[1,0.5]];portConstraint=eastwest;" parent="6ButkEsAmWv3XfVS1BKQ-55" vertex="1">
          <mxGeometry y="188" width="182" height="26" as="geometry" />
        </mxCell>
        <mxCell id="6ButkEsAmWv3XfVS1BKQ-62" value="+ add_birthday(birthday)" style="text;align=left;verticalAlign=top;spacingLeft=4;spacingRight=4;overflow=hidden;rotatable=0;points=[[0,0.5],[1,0.5]];portConstraint=eastwest;" parent="6ButkEsAmWv3XfVS1BKQ-55" vertex="1">
          <mxGeometry y="214" width="182" height="26" as="geometry" />
        </mxCell>
        <mxCell id="6ButkEsAmWv3XfVS1BKQ-63" value="+ show_birthday()" style="text;align=left;verticalAlign=top;spacingLeft=4;spacingRight=4;overflow=hidden;rotatable=0;points=[[0,0.5],[1,0.5]];portConstraint=eastwest;" parent="6ButkEsAmWv3XfVS1BKQ-55" vertex="1">
          <mxGeometry y="240" width="182" height="26" as="geometry" />
        </mxCell>
        <mxCell id="6ButkEsAmWv3XfVS1BKQ-74" style="edgeStyle=orthogonalEdgeStyle;rounded=0;orthogonalLoop=1;jettySize=auto;html=1;entryX=1;entryY=0.154;entryDx=0;entryDy=0;entryPerimeter=0;exitX=0;exitY=0.5;exitDx=0;exitDy=0;strokeWidth=2;" parent="WIyWlLk6GJQsqaUBKTNV-1" source="6ButkEsAmWv3XfVS1BKQ-83" target="6ButkEsAmWv3XfVS1BKQ-2" edge="1">
          <mxGeometry relative="1" as="geometry">
            <mxPoint x="1140" y="434" as="sourcePoint" />
            <mxPoint x="1021" y="514" as="targetPoint" />
          </mxGeometry>
        </mxCell>
        <mxCell id="6ButkEsAmWv3XfVS1BKQ-75" value="&lt;span style=&quot;text-wrap: nowrap;&quot;&gt;Birthday&lt;/span&gt;" style="swimlane;fontStyle=1;align=center;verticalAlign=top;childLayout=stackLayout;horizontal=1;startSize=26;horizontalStack=0;resizeParent=1;resizeParentMax=0;resizeLast=0;collapsible=1;marginBottom=0;whiteSpace=wrap;html=1;strokeWidth=2;" parent="WIyWlLk6GJQsqaUBKTNV-1" vertex="1">
          <mxGeometry x="1220" y="760" width="160" height="110" as="geometry" />
        </mxCell>
        <mxCell id="6ButkEsAmWv3XfVS1BKQ-76" value="&lt;font color=&quot;#ff3333&quot; style=&quot;font-size: 16px;&quot;&gt;- value : datetime&lt;/font&gt;" style="text;strokeColor=none;fillColor=none;align=left;verticalAlign=top;spacingLeft=4;spacingRight=4;overflow=hidden;rotatable=0;points=[[0,0.5],[1,0.5]];portConstraint=eastwest;whiteSpace=wrap;html=1;" parent="6ButkEsAmWv3XfVS1BKQ-75" vertex="1">
          <mxGeometry y="26" width="160" height="26" as="geometry" />
        </mxCell>
        <mxCell id="6ButkEsAmWv3XfVS1BKQ-77" value="" style="line;strokeWidth=1;fillColor=none;align=left;verticalAlign=middle;spacingTop=-1;spacingLeft=3;spacingRight=3;rotatable=0;labelPosition=right;points=[];portConstraint=eastwest;strokeColor=inherit;" parent="6ButkEsAmWv3XfVS1BKQ-75" vertex="1">
          <mxGeometry y="52" width="160" height="8" as="geometry" />
        </mxCell>
        <mxCell id="6ButkEsAmWv3XfVS1BKQ-78" value="&lt;span style=&quot;text-align: center; text-wrap: nowrap;&quot;&gt;&lt;font style=&quot;font-size: 16px;&quot;&gt;+__init__(value)&lt;/font&gt;&lt;/span&gt;" style="text;strokeColor=none;fillColor=none;align=left;verticalAlign=top;spacingLeft=4;spacingRight=4;overflow=hidden;rotatable=0;points=[[0,0.5],[1,0.5]];portConstraint=eastwest;whiteSpace=wrap;html=1;" parent="6ButkEsAmWv3XfVS1BKQ-75" vertex="1">
          <mxGeometry y="60" width="160" height="50" as="geometry" />
        </mxCell>
        <mxCell id="6ButkEsAmWv3XfVS1BKQ-81" value="" style="endArrow=block;endSize=10;endFill=0;shadow=0;strokeWidth=2;rounded=0;curved=0;edgeStyle=elbowEdgeStyle;elbow=vertical;exitX=0.5;exitY=0;exitDx=0;exitDy=0;entryX=0.5;entryY=1;entryDx=0;entryDy=0;" parent="WIyWlLk6GJQsqaUBKTNV-1" edge="1">
          <mxGeometry width="160" relative="1" as="geometry">
            <mxPoint x="1300" y="759" as="sourcePoint" />
            <mxPoint x="1050" y="653" as="targetPoint" />
            <Array as="points">
              <mxPoint x="1130" y="709" />
            </Array>
          </mxGeometry>
        </mxCell>
        <mxCell id="6ButkEsAmWv3XfVS1BKQ-82" value="" style="endArrow=block;endSize=10;endFill=0;shadow=0;strokeWidth=2;rounded=0;curved=0;edgeStyle=elbowEdgeStyle;elbow=vertical;entryX=0.5;entryY=1;entryDx=0;entryDy=0;exitX=0.5;exitY=0;exitDx=0;exitDy=0;" parent="WIyWlLk6GJQsqaUBKTNV-1" source="6ButkEsAmWv3XfVS1BKQ-18" edge="1">
          <mxGeometry width="160" relative="1" as="geometry">
            <mxPoint x="1555" y="444" as="sourcePoint" />
            <mxPoint x="1280" y="380" as="targetPoint" />
          </mxGeometry>
        </mxCell>
        <mxCell id="6ButkEsAmWv3XfVS1BKQ-83" value="&lt;span style=&quot;font-size: 14px; font-weight: 700; text-wrap: nowrap;&quot;&gt;UserDict&lt;/span&gt;" style="html=1;whiteSpace=wrap;strokeWidth=3;" parent="WIyWlLk6GJQsqaUBKTNV-1" vertex="1">
          <mxGeometry x="1230" y="330" width="110" height="50" as="geometry" />
        </mxCell>
        <mxCell id="EPxrsmZOJuQu-oaEyCnp-0" value="&lt;font style=&quot;font-size: 14px;&quot;&gt;&lt;b&gt;&lt;i&gt;ABC&lt;/i&gt;&lt;/b&gt;&lt;/font&gt;" style="html=1;whiteSpace=wrap;strokeWidth=2;" vertex="1" parent="WIyWlLk6GJQsqaUBKTNV-1">
          <mxGeometry x="645" y="210" width="110" height="50" as="geometry" />
        </mxCell>
        <mxCell id="EPxrsmZOJuQu-oaEyCnp-9" value="&lt;i&gt;WebAbstract&lt;/i&gt;" style="swimlane;fontStyle=0;childLayout=stackLayout;horizontal=1;startSize=26;fillColor=none;horizontalStack=0;resizeParent=1;resizeParentMax=0;resizeLast=0;collapsible=1;marginBottom=0;whiteSpace=wrap;html=1;strokeWidth=3;" vertex="1" parent="WIyWlLk6GJQsqaUBKTNV-1">
          <mxGeometry x="740" y="430" width="180" height="78" as="geometry" />
        </mxCell>
        <mxCell id="EPxrsmZOJuQu-oaEyCnp-10" value="+ show_contacts(contacts)" style="text;strokeColor=none;fillColor=none;align=left;verticalAlign=top;spacingLeft=4;spacingRight=4;overflow=hidden;rotatable=0;points=[[0,0.5],[1,0.5]];portConstraint=eastwest;whiteSpace=wrap;html=1;" vertex="1" parent="EPxrsmZOJuQu-oaEyCnp-9">
          <mxGeometry y="26" width="180" height="26" as="geometry" />
        </mxCell>
        <mxCell id="EPxrsmZOJuQu-oaEyCnp-12" value="+ show_comands(comands)" style="text;strokeColor=none;fillColor=none;align=left;verticalAlign=top;spacingLeft=4;spacingRight=4;overflow=hidden;rotatable=0;points=[[0,0.5],[1,0.5]];portConstraint=eastwest;whiteSpace=wrap;html=1;" vertex="1" parent="EPxrsmZOJuQu-oaEyCnp-9">
          <mxGeometry y="52" width="180" height="26" as="geometry" />
        </mxCell>
        <mxCell id="EPxrsmZOJuQu-oaEyCnp-13" value="&lt;i style=&quot;font-weight: 700;&quot;&gt;AbstractBasic&lt;/i&gt;" style="swimlane;fontStyle=0;childLayout=stackLayout;horizontal=1;startSize=26;fillColor=none;horizontalStack=0;resizeParent=1;resizeParentMax=0;resizeLast=0;collapsible=1;marginBottom=0;whiteSpace=wrap;html=1;strokeWidth=3;" vertex="1" parent="WIyWlLk6GJQsqaUBKTNV-1">
          <mxGeometry x="615" y="300" width="170" height="78" as="geometry" />
        </mxCell>
        <mxCell id="EPxrsmZOJuQu-oaEyCnp-14" value="+show_contacts(contacts)" style="text;strokeColor=none;fillColor=none;align=left;verticalAlign=top;spacingLeft=4;spacingRight=4;overflow=hidden;rotatable=0;points=[[0,0.5],[1,0.5]];portConstraint=eastwest;whiteSpace=wrap;html=1;" vertex="1" parent="EPxrsmZOJuQu-oaEyCnp-13">
          <mxGeometry y="26" width="170" height="26" as="geometry" />
        </mxCell>
        <mxCell id="EPxrsmZOJuQu-oaEyCnp-15" value="+ fshow_comands(comands)" style="text;strokeColor=none;fillColor=none;align=left;verticalAlign=top;spacingLeft=4;spacingRight=4;overflow=hidden;rotatable=0;points=[[0,0.5],[1,0.5]];portConstraint=eastwest;whiteSpace=wrap;html=1;" vertex="1" parent="EPxrsmZOJuQu-oaEyCnp-13">
          <mxGeometry y="52" width="170" height="26" as="geometry" />
        </mxCell>
        <mxCell id="EPxrsmZOJuQu-oaEyCnp-17" value="&lt;i&gt;ConsoleAbstract&lt;/i&gt;" style="swimlane;fontStyle=0;childLayout=stackLayout;horizontal=1;startSize=26;fillColor=none;horizontalStack=0;resizeParent=1;resizeParentMax=0;resizeLast=0;collapsible=1;marginBottom=0;whiteSpace=wrap;html=1;strokeWidth=3;" vertex="1" parent="WIyWlLk6GJQsqaUBKTNV-1">
          <mxGeometry x="440" y="430" width="190" height="78" as="geometry" />
        </mxCell>
        <mxCell id="EPxrsmZOJuQu-oaEyCnp-18" value="+ show_contacts(contacts)" style="text;strokeColor=none;fillColor=none;align=left;verticalAlign=top;spacingLeft=4;spacingRight=4;overflow=hidden;rotatable=0;points=[[0,0.5],[1,0.5]];portConstraint=eastwest;whiteSpace=wrap;html=1;" vertex="1" parent="EPxrsmZOJuQu-oaEyCnp-17">
          <mxGeometry y="26" width="190" height="26" as="geometry" />
        </mxCell>
        <mxCell id="EPxrsmZOJuQu-oaEyCnp-19" value="+ show_comands(comands)" style="text;strokeColor=none;fillColor=none;align=left;verticalAlign=top;spacingLeft=4;spacingRight=4;overflow=hidden;rotatable=0;points=[[0,0.5],[1,0.5]];portConstraint=eastwest;whiteSpace=wrap;html=1;" vertex="1" parent="EPxrsmZOJuQu-oaEyCnp-17">
          <mxGeometry y="52" width="190" height="26" as="geometry" />
        </mxCell>
        <mxCell id="EPxrsmZOJuQu-oaEyCnp-22" value="" style="endArrow=block;endSize=10;endFill=0;shadow=0;strokeWidth=2;rounded=0;curved=0;edgeStyle=elbowEdgeStyle;elbow=vertical;exitX=0.5;exitY=0;exitDx=0;exitDy=0;" edge="1" parent="WIyWlLk6GJQsqaUBKTNV-1" source="EPxrsmZOJuQu-oaEyCnp-13" target="EPxrsmZOJuQu-oaEyCnp-0">
          <mxGeometry width="160" relative="1" as="geometry">
            <mxPoint x="680" y="280" as="sourcePoint" />
            <mxPoint x="455" y="120" as="targetPoint" />
          </mxGeometry>
        </mxCell>
        <mxCell id="EPxrsmZOJuQu-oaEyCnp-24" value="" style="endArrow=block;endSize=10;endFill=0;shadow=0;strokeWidth=2;rounded=0;curved=0;edgeStyle=elbowEdgeStyle;elbow=vertical;exitX=0.5;exitY=0;exitDx=0;exitDy=0;entryX=1.024;entryY=0.154;entryDx=0;entryDy=0;entryPerimeter=0;" edge="1" parent="WIyWlLk6GJQsqaUBKTNV-1">
          <mxGeometry width="160" relative="1" as="geometry">
            <mxPoint x="828" y="430" as="sourcePoint" />
            <mxPoint x="787.0799999999999" y="330.0039999999999" as="targetPoint" />
            <Array as="points">
              <mxPoint x="878" y="330" />
            </Array>
          </mxGeometry>
        </mxCell>
        <mxCell id="EPxrsmZOJuQu-oaEyCnp-25" value="" style="endArrow=block;endSize=10;endFill=0;shadow=0;strokeWidth=2;rounded=0;curved=0;edgeStyle=elbowEdgeStyle;elbow=vertical;exitX=0.5;exitY=0;exitDx=0;exitDy=0;entryX=-0.029;entryY=0.116;entryDx=0;entryDy=0;entryPerimeter=0;" edge="1" parent="WIyWlLk6GJQsqaUBKTNV-1">
          <mxGeometry width="160" relative="1" as="geometry">
            <mxPoint x="535.92" y="429" as="sourcePoint" />
            <mxPoint x="615.0699999999999" y="329.0160000000001" as="targetPoint" />
            <Array as="points">
              <mxPoint x="585.92" y="329" />
            </Array>
          </mxGeometry>
        </mxCell>
        <mxCell id="EPxrsmZOJuQu-oaEyCnp-32" value="" style="endArrow=classic;html=1;rounded=0;strokeWidth=2;exitX=0.5;exitY=1;exitDx=0;exitDy=0;entryX=0;entryY=0.25;entryDx=0;entryDy=0;" edge="1" parent="WIyWlLk6GJQsqaUBKTNV-1" source="EPxrsmZOJuQu-oaEyCnp-9" target="6ButkEsAmWv3XfVS1BKQ-1">
          <mxGeometry width="50" height="50" relative="1" as="geometry">
            <mxPoint x="830" y="560" as="sourcePoint" />
            <mxPoint x="829" y="630" as="targetPoint" />
          </mxGeometry>
        </mxCell>
        <mxCell id="EPxrsmZOJuQu-oaEyCnp-33" value="" style="endArrow=classic;html=1;rounded=0;entryX=0;entryY=0.8;entryDx=0;entryDy=0;strokeWidth=2;exitX=0.474;exitY=1.077;exitDx=0;exitDy=0;exitPerimeter=0;entryPerimeter=0;" edge="1" parent="WIyWlLk6GJQsqaUBKTNV-1" source="EPxrsmZOJuQu-oaEyCnp-19" target="6ButkEsAmWv3XfVS1BKQ-6">
          <mxGeometry width="50" height="50" relative="1" as="geometry">
            <mxPoint x="560" y="540" as="sourcePoint" />
            <mxPoint x="559" y="610" as="targetPoint" />
          </mxGeometry>
        </mxCell>
      </root>
    </mxGraphModel>
  </diagram>
</mxfile>
